<svg width="20" height="16" viewBox="0 0 20 16" fill="none" xmlns="http://www.w3.org/2000/svg">
<path d="M19.8912 7.54375C18.1965 4.23719 14.8415 2 11 2C7.15842 2 3.80248 4.23875 2.10873 7.54406C2.03725 7.68547 2 7.8417 2 8.00016C2 8.15861 2.03725 8.31484 2.10873 8.45625C3.80342 11.7628 7.15842 14 11 14C14.8415 14 18.1975 11.7612 19.8912 8.45594C19.9627 8.31453 20 8.1583 20 7.99984C20 7.84139 19.9627 7.68516 19.8912 7.54375ZM11 12.5C10.11 12.5 9.23994 12.2361 8.49992 11.7416C7.7599 11.2471 7.18312 10.5443 6.84253 9.72208C6.50193 8.89981 6.41282 7.99501 6.58645 7.12209C6.76008 6.24918 7.18867 5.44736 7.818 4.81802C8.44734 4.18868 9.24916 3.7601 10.1221 3.58647C10.995 3.41283 11.8998 3.50195 12.7221 3.84254C13.5443 4.18314 14.2471 4.75991 14.7416 5.49993C15.2361 6.23995 15.5 7.10998 15.5 8C15.5003 8.59103 15.3841 9.17632 15.158 9.72242C14.932 10.2685 14.6005 10.7647 14.1826 11.1826C13.7647 11.6005 13.2685 11.932 12.7224 12.158C12.1763 12.3841 11.591 12.5003 11 12.5ZM11 5C10.7322 5.00374 10.4662 5.04358 10.209 5.11844C10.421 5.40646 10.5227 5.7609 10.4957 6.11748C10.4687 6.47406 10.3149 6.80917 10.062 7.06203C9.80915 7.31489 9.47405 7.46876 9.11747 7.49574C8.76088 7.52271 8.40644 7.42101 8.11842 7.20906C7.95441 7.81331 7.98402 8.45377 8.20307 9.04031C8.42213 9.62685 8.8196 10.1299 9.33955 10.4787C9.8595 10.8275 10.4757 11.0045 11.1015 10.9847C11.7273 10.965 12.3312 10.7495 12.8281 10.3685C13.325 9.9876 13.6899 9.46044 13.8715 8.86125C14.0531 8.26205 14.0422 7.62099 13.8404 7.0283C13.6386 6.43561 13.256 5.92114 12.7464 5.55728C12.2369 5.19343 11.6261 4.99853 11 5Z" fill="black"/>
</svg>
